# xmcd CD database file
# Copyright (C) 1993-1998 Ti Kan
#
# Track frame offsets:
#	150
#	14980
#	43045
#	56635
#	68230
#	78290
#	90405
#	101615
#	122220
#	150465
#	166730
#	183605
#	198425
#	215940
#	232650
#	244380
#	256390
#	268210
#	280925
#	297465
#	311620
#	324330
#	340285
#
# Disc length: 4727 seconds
#
# Revision: 0
# Processed by: cddbd v1.4b41PL1 Copyright (c) Steve Scherf et al.
# Submitted via: CDmax 1.4
#
DISCID=5b127517
DTITLE=Ray Charles - The Collection Vol. 2
DYEAR=1900
DGENRE=
TTITLE0=Here we go again
TTITLE1=Makin whoopee
TTITLE2=At the club
TTITLE3=My baby don't dig me
TTITLE4=Sticks and stones
TTITLE5=No one to cry to
TTITLE6=I choose to sing the blues
TTITLE7=I've got news for you
TTITLE8=I gotta woman (Pt 1)
TTITLE9=Without love
TTITLE10=I'm gonna move to the outskirts of town
TTITLE11=You don't know me
TTITLE12=Ruby
TTITLE13=What have they done to my song ma
TTITLE14=Baby don't you cry
TTITLE15=Together again
TTITLE16=Don't set me free
TTITLE17=Them that got
TTITLE18=What am I living for
TTITLE19=Understanding
TTITLE20=If you were mine
TTITLE21=Cry
TTITLE22=Hide nor hair
EXTD=
EXTT0=
EXTT1=
EXTT2=
EXTT3=
EXTT4=
EXTT5=
EXTT6=
EXTT7=
EXTT8=
EXTT9=
EXTT10=
EXTT11=
EXTT12=
EXTT13=
EXTT14=
EXTT15=
EXTT16=
EXTT17=
EXTT18=
EXTT19=
EXTT20=
EXTT21=
EXTT22=
PLAYORDER=
